<svg id="Layer_6" data-name="Layer 6" xmlns="http://www.w3.org/2000/svg" viewBox="0 0 1920 1920"><defs><style>.cls-1{fill:#fff;}</style></defs><title>Chimera desk LOGO vect</title><path class="cls-1" d="M1718.44,1920H202.56A202.12,202.12,0,0,1,1,1718.44V202.56A202.12,202.12,0,0,1,202.56,1H1718.44A202.12,202.12,0,0,1,1920,202.56V1718.44A202.12,202.12,0,0,1,1718.44,1920Z"/><path d="M1719.18,304.65c-22.72-30.7-24.2-64.13-22.94-76.32a268.4,268.4,0,0,1,14.1,36.58A233.66,233.66,0,0,1,1719.18,304.65Z"/><path d="M243.43,251.07c44.09-40.71,96.08-48.71,115.35-48.82,0,0-21.12,13.61-54.76,28.25S243.43,251.07,243.43,251.07Z"/><path d="M475,1731.82c68.64,9.92,130.94,23.21,115.35-48.82,0,0-21.13,13.61-54.77,28.25S475,1731.82,475,1731.82Z"/><path d="M1532.23,1561.2c44.1-40.71,96.08-48.71,115.35-48.82,0,0-21.12,13.61-54.76,28.25S1532.23,1561.2,1532.23,1561.2Z"/><path d="M218.4,1232.87c47.5,36.67,64.07,86.59,67.39,105.58,0,0-16.94-18.56-37-49.28S218.4,1232.87,218.4,1232.87Z"/><path d="M1692.69,43H226.31C125.49,43,43,125.49,43,226.31V1692.69C43,1793.51,125.49,1876,226.31,1876H1692.69c100.82,0,183.31-82.49,183.31-183.31V226.31C1876,125.49,1793.51,43,1692.69,43ZM1785,721.14c-8.55-12.23-14.9-23.73-17-33.38-3-14-13.37-72.67,17-114.38ZM1785,1785H1467.08c-9.89-13.51-18.86-27-18.43-40,.78-23.86-31.8-28.18-33.39-61.88s6.58-219.88,41.24-236.34,179.17-34.12,237.45-93.12c0,0,13.2,79.56,91,137.64Zm0-941.08c-64.93,3.42-133.43,33.38-157.81,18.13-24-15-42.72-29.77-60.16-46.8-54-52.69-102.86-257.52-155.66-402.59C1359.07,269,1240,299.28,1237.71,299.87c59.3-44.07,195.61-1.91,234.54,8.55,33.51,9,78.08,21.21-1.17-32-64.93-43.59-100.86-31.77-111.72-26.06,32.83-20,72.93-32.67,166.15-5.41,54.55,16,55.94,57.08,56.62,41s-6.81-90.55-140.08-118.2-231.91,73.77-277.89,87.83-59.22,47.24-93.05,70.77S931,407.68,925.86,417.88s10.63,11.93,10.63,11.93l-8.78,3.93c-20.86,18.16-2,56.28,31.28,80.46s50.7,2.3,53.59,48.9,6.81,80.94,6.81,80.94l-22.16,10.37,19.89,5.14-15.61,17.12,19.4-4.76s-20.83,26.05,1.93,26.82S1044.73,670,1044.73,670L1059,603.8l-.9,37.84L1061.8,600l16,47.32-8.19-53.46,18.5,34.33-6.56-31,21.85,25.87-10.23-29.33L1110.21,619l-7-31.15,19,20.54s10.44-3.88-5.2-25-22.06-43.27,30.23-27.64S1201.94,610,1198.51,662,1217.58,776,1264.9,881.42c1.41,3.14-3.37,3.1,2.78,25.43a233.55,233.55,0,0,1-31-18.61c-71.09-50.47-137.82-139.88-256.24-180.3S759.58,587.78,665.65,596.72s-92.29,29.95-114.19,33.78c0,0,92,33.51,50.87,69s-103.4,63.61-108.31,82-119.26,43.18-135.81,68.26-7,51.83-1,61.93c0,0-2.6,40.92,8.9,59.57s28.69-4.88,28.16,15.25,14.2,46.46,18.33,52,9.81-36.72,9.81-36.72l9.22-3.89s9.73,23,13.87,28.52c0,0,1.77-4.36,3.36-17.7s30.19-39.9,54.32-8.48,31.45,57.26,15,69.67-49.43,2.81-56.42-5.09c.27.76,8.93,25.35,14.91,35.3s-26.61-15.89-33.82-20.1,7.79,18.43,13.4,36-11.39,33.74-2.92,57.32c10.14,28.29,50.92,56.29,101.41,25.9,0,0,66.67,149.15,239.93,161s217.62,71.77,217.62,71.77c33.84,101.51,118.64,212.23,152.26,270.38a852.55,852.55,0,0,1,41.62,82.8H135V135H1785V352.64a103.86,103.86,0,0,0-23.89,5.85c-25.42,10.4-43.9,31.19-67,20.8-17-7.65-64.44-13.89-92.41-11.55-13.86,1.15-23.11,18.48-41.59,24.26-12.48,3.89,20.79,10.39,20.79,10.39s-33,8.23-41.58,5.78l11.54,5.78-9.23,5.77s28.88-4.62,34.65-6.93,13.87,11.56,25.42,13.87,34.66,9.23,65.85,3.46,58.9-19.64,92.42-20.79c8.84-.31,17.19-2.14,25-4v91.58c-3.13,1.89-5.77,3.51-7.72,4.81-14.65,9.83-70.58,65.57-73.93,157.11-1.21,32.95,35.25,94.29,81.65,158.44Z"/><path d="M1718.44,1920H202.56A202.12,202.12,0,0,1,1,1718.44V202.56A202.12,202.12,0,0,1,202.56,1H1718.44A202.12,202.12,0,0,1,1920,202.56V1718.44A202.12,202.12,0,0,1,1718.44,1920ZM25,202.41V1718.59A177.41,177.41,0,0,0,202.41,1896H1718.59A177.41,177.41,0,0,0,1896,1718.59V202.41A177.41,177.41,0,0,0,1718.59,25H202.41A177.41,177.41,0,0,0,25,202.41Z"/></svg>